<svg width="64" height="64" viewBox="0 0 64 64" xmlns="http://www.w3.org/2000/svg" fill="none" stroke="#dfe5ef" stroke-width="2.4" stroke-linecap="round" stroke-linejoin="round">
  <path d="M18 22c0-8 6-14 14-14 5 0 9 2 12 6"/>
  <path d="M15 30c0-3 2-5 5-5h20c3 0 5 2 5 5v12c0 7-6 13-13 13h-6c-7 0-11-6-11-13z"/>
  <circle cx="26" cy="36" r="1.7" fill="#dfe5ef"/>
  <circle cx="36" cy="36" r="1.7" fill="#dfe5ef"/>
  <path d="M25 44c2 1 4 2 7 2s5-1 7-2"/>
  <path d="M46 18l5 4"/>
  <path d="M11 24l6 1"/>
</svg>
