<svg xmlns="http://www.w3.org/2000/svg" viewBox="0 0 64 64" fill="none" stroke="#dfe5ef" stroke-width="2.4" stroke-linecap="round" stroke-linejoin="round">
  <!-- RAM stick body -->
  <rect x="6" y="20" width="52" height="20" rx="2"/>
  <!-- Chips on RAM -->
  <rect x="12" y="24" width="6" height="12" rx="1"/>
  <rect x="22" y="24" width="6" height="12" rx="1"/>
  <rect x="32" y="24" width="6" height="12" rx="1"/>
  <rect x="42" y="24" width="6" height="12" rx="1"/>
  <!-- Pins bottom -->
  <line x1="10" y1="40" x2="10" y2="46"/>
  <line x1="16" y1="40" x2="16" y2="46"/>
  <line x1="22" y1="40" x2="22" y2="46"/>
  <line x1="28" y1="40" x2="28" y2="46"/>
  <line x1="34" y1="40" x2="34" y2="46"/>
  <line x1="40" y1="40" x2="40" y2="46"/>
  <line x1="46" y1="40" x2="46" y2="46"/>
  <line x1="52" y1="40" x2="52" y2="46"/>
  <!-- Boost arrow -->
  <line x1="32" y1="16" x2="32" y2="8"/>
  <polyline points="26,12 32,8 38,12"/>
</svg>
