<svg width="64" height="64" viewBox="0 0 64 64" xmlns="http://www.w3.org/2000/svg" fill="none" stroke="#dfe5ef" stroke-width="2.4" stroke-linecap="round" stroke-linejoin="round">
  <path d="M32 8 C26 8 22 12 22 18 L22 40 C18 43 16 47 16 51 C16 58 23 63 32 63 C41 63 48 58 48 51 C48 47 46 43 42 40 L42 18 C42 12 38 8 32 8 Z"/>
  <line x1="42" y1="22" x2="46" y2="22"/>
  <line x1="42" y1="29" x2="46" y2="29"/>
  <line x1="42" y1="36" x2="46" y2="36"/>
  <circle cx="32" cy="51" r="6" fill="#dfe5ef" stroke="none"/>
  <line x1="32" y1="22" x2="32" y2="44" stroke-width="3.5"/>
</svg>
