<svg xmlns="http://www.w3.org/2000/svg" viewBox="0 0 64 64" fill="none" stroke="#dfe5ef" stroke-width="2.4" stroke-linecap="round" stroke-linejoin="round">
  <!-- Film frame -->
  <rect x="8" y="12" width="48" height="36" rx="3"/>
  <!-- Sprocket holes left -->
  <rect x="11" y="16" width="4" height="4" rx="1"/>
  <rect x="11" y="24" width="4" height="4" rx="1"/>
  <rect x="11" y="32" width="4" height="4" rx="1"/>
  <rect x="11" y="40" width="4" height="4" rx="1"/>
  <!-- Sprocket holes right -->
  <rect x="49" y="16" width="4" height="4" rx="1"/>
  <rect x="49" y="24" width="4" height="4" rx="1"/>
  <rect x="49" y="32" width="4" height="4" rx="1"/>
  <rect x="49" y="40" width="4" height="4" rx="1"/>
  <!-- Play triangle -->
  <polygon points="27,22 27,38 40,30" fill="#dfe5ef" stroke="none"/>
  <!-- Arrow to GIF -->
  <line x1="32" y1="52" x2="32" y2="58"/>
  <polyline points="26,55 32,58 38,55"/>
</svg>
